<mxfile host="app.diagrams.net" modified="2022-06-27T16:31:51.029Z" agent="5.0 (Windows NT 10.0; Win64; x64) AppleWebKit/537.36 (KHTML, like Gecko) Chrome/102.0.0.0 Safari/537.36" etag="Pqg2w_3WU280RC2h7bVo" version="16.6.1" type="github">
  <diagram id="nAKeUqGm34aaBLQICZyq" name="Page-1">
    <mxGraphModel dx="2062" dy="1114" grid="1" gridSize="10" guides="1" tooltips="1" connect="1" arrows="1" fold="1" page="1" pageScale="1" pageWidth="827" pageHeight="1169" math="0" shadow="0">
      <root>
        <mxCell id="0" />
        <mxCell id="1" parent="0" />
        <mxCell id="l6peJzb6LIXVpnfwvZle-1" value="" style="rounded=1;whiteSpace=wrap;html=1;fillColor=#647687;strokeColor=#314354;fontColor=#ffffff;" vertex="1" parent="1">
          <mxGeometry x="440" y="630" width="880" height="110" as="geometry" />
        </mxCell>
        <mxCell id="l6peJzb6LIXVpnfwvZle-2" value="&lt;font face=&quot;Courier New&quot; style=&quot;font-size: 18px&quot;&gt;&lt;b&gt;0&lt;/b&gt;&lt;/font&gt;" style="rounded=0;whiteSpace=wrap;html=1;fillColor=#008a00;fontColor=#ffffff;strokeColor=#005700;" vertex="1" parent="1">
          <mxGeometry x="490" y="665" width="70" height="40" as="geometry" />
        </mxCell>
        <mxCell id="l6peJzb6LIXVpnfwvZle-3" value="&lt;font face=&quot;Courier New&quot; style=&quot;font-size: 18px&quot;&gt;&lt;b&gt;0&lt;/b&gt;&lt;/font&gt;" style="rounded=0;whiteSpace=wrap;html=1;fillColor=#008a00;fontColor=#ffffff;strokeColor=#005700;" vertex="1" parent="1">
          <mxGeometry x="580" y="665" width="70" height="40" as="geometry" />
        </mxCell>
        <mxCell id="l6peJzb6LIXVpnfwvZle-4" value="&lt;font face=&quot;Courier New&quot; style=&quot;font-size: 18px&quot;&gt;&lt;b&gt;0&lt;/b&gt;&lt;/font&gt;" style="rounded=0;whiteSpace=wrap;html=1;fillColor=#008a00;fontColor=#ffffff;strokeColor=#005700;" vertex="1" parent="1">
          <mxGeometry x="670" y="665" width="70" height="40" as="geometry" />
        </mxCell>
        <mxCell id="l6peJzb6LIXVpnfwvZle-5" value="&lt;font face=&quot;Courier New&quot; style=&quot;font-size: 18px&quot;&gt;&lt;b&gt;0&lt;/b&gt;&lt;/font&gt;" style="rounded=0;whiteSpace=wrap;html=1;fillColor=#008a00;fontColor=#ffffff;strokeColor=#005700;" vertex="1" parent="1">
          <mxGeometry x="760" y="665" width="70" height="40" as="geometry" />
        </mxCell>
        <mxCell id="l6peJzb6LIXVpnfwvZle-6" value="&lt;font face=&quot;Courier New&quot; style=&quot;font-size: 18px&quot;&gt;&lt;b&gt;0&lt;/b&gt;&lt;/font&gt;" style="rounded=0;whiteSpace=wrap;html=1;fillColor=#008a00;fontColor=#ffffff;strokeColor=#005700;" vertex="1" parent="1">
          <mxGeometry x="850" y="665" width="70" height="40" as="geometry" />
        </mxCell>
        <mxCell id="l6peJzb6LIXVpnfwvZle-7" value="&lt;font face=&quot;Courier New&quot; style=&quot;font-size: 18px&quot;&gt;&lt;b&gt;0&lt;/b&gt;&lt;/font&gt;" style="rounded=0;whiteSpace=wrap;html=1;fillColor=#008a00;fontColor=#ffffff;strokeColor=#005700;" vertex="1" parent="1">
          <mxGeometry x="940" y="665" width="70" height="40" as="geometry" />
        </mxCell>
        <mxCell id="l6peJzb6LIXVpnfwvZle-8" value="&lt;font face=&quot;Courier New&quot; style=&quot;font-size: 18px&quot;&gt;&lt;b&gt;0&lt;/b&gt;&lt;/font&gt;" style="rounded=0;whiteSpace=wrap;html=1;fillColor=#008a00;fontColor=#ffffff;strokeColor=#005700;" vertex="1" parent="1">
          <mxGeometry x="1030" y="665" width="70" height="40" as="geometry" />
        </mxCell>
        <mxCell id="l6peJzb6LIXVpnfwvZle-9" value="&lt;font face=&quot;Courier New&quot; style=&quot;font-size: 18px&quot;&gt;&lt;b&gt;0&lt;/b&gt;&lt;/font&gt;" style="rounded=0;whiteSpace=wrap;html=1;fillColor=#008a00;fontColor=#ffffff;strokeColor=#005700;" vertex="1" parent="1">
          <mxGeometry x="1120" y="665" width="70" height="40" as="geometry" />
        </mxCell>
        <mxCell id="l6peJzb6LIXVpnfwvZle-10" value="&lt;font face=&quot;Courier New&quot; style=&quot;font-size: 18px&quot;&gt;&lt;b&gt;...&lt;/b&gt;&lt;/font&gt;" style="rounded=0;whiteSpace=wrap;html=1;fillColor=#008a00;fontColor=#ffffff;strokeColor=#005700;" vertex="1" parent="1">
          <mxGeometry x="1210" y="665" width="70" height="40" as="geometry" />
        </mxCell>
        <mxCell id="l6peJzb6LIXVpnfwvZle-16" style="edgeStyle=orthogonalEdgeStyle;curved=1;rounded=0;orthogonalLoop=1;jettySize=auto;html=1;exitX=0;exitY=1;exitDx=0;exitDy=0;fontFamily=Courier New;fontSize=18;" edge="1" parent="1" source="l6peJzb6LIXVpnfwvZle-13" target="l6peJzb6LIXVpnfwvZle-15">
          <mxGeometry relative="1" as="geometry" />
        </mxCell>
        <mxCell id="l6peJzb6LIXVpnfwvZle-20" style="edgeStyle=orthogonalEdgeStyle;curved=1;rounded=0;orthogonalLoop=1;jettySize=auto;html=1;exitX=0.5;exitY=1;exitDx=0;exitDy=0;entryX=0.5;entryY=0;entryDx=0;entryDy=0;fontFamily=Courier New;fontSize=18;" edge="1" parent="1" source="l6peJzb6LIXVpnfwvZle-13" target="l6peJzb6LIXVpnfwvZle-18">
          <mxGeometry relative="1" as="geometry" />
        </mxCell>
        <mxCell id="l6peJzb6LIXVpnfwvZle-22" style="edgeStyle=orthogonalEdgeStyle;curved=1;rounded=0;orthogonalLoop=1;jettySize=auto;html=1;exitX=1;exitY=1;exitDx=0;exitDy=0;fontFamily=Courier New;fontSize=18;" edge="1" parent="1" source="l6peJzb6LIXVpnfwvZle-13" target="l6peJzb6LIXVpnfwvZle-19">
          <mxGeometry relative="1" as="geometry" />
        </mxCell>
        <mxCell id="l6peJzb6LIXVpnfwvZle-25" style="edgeStyle=orthogonalEdgeStyle;curved=1;rounded=0;orthogonalLoop=1;jettySize=auto;html=1;exitX=0.75;exitY=1;exitDx=0;exitDy=0;fontFamily=Courier New;fontSize=18;" edge="1" parent="1" source="l6peJzb6LIXVpnfwvZle-13" target="l6peJzb6LIXVpnfwvZle-24">
          <mxGeometry relative="1" as="geometry" />
        </mxCell>
        <mxCell id="l6peJzb6LIXVpnfwvZle-13" value="对象" style="rounded=0;whiteSpace=wrap;html=1;fontFamily=Courier New;fontSize=18;fillColor=#647687;fontColor=#ffffff;strokeColor=#314354;" vertex="1" parent="1">
          <mxGeometry x="785" y="170" width="190" height="60" as="geometry" />
        </mxCell>
        <mxCell id="l6peJzb6LIXVpnfwvZle-14" value="大容量的位数组" style="rounded=0;whiteSpace=wrap;html=1;fontFamily=Courier New;fontSize=18;fillColor=#647687;fontColor=#ffffff;strokeColor=#314354;" vertex="1" parent="1">
          <mxGeometry x="792" y="760" width="190" height="60" as="geometry" />
        </mxCell>
        <mxCell id="l6peJzb6LIXVpnfwvZle-17" style="edgeStyle=orthogonalEdgeStyle;curved=1;rounded=0;orthogonalLoop=1;jettySize=auto;html=1;exitX=0.5;exitY=1;exitDx=0;exitDy=0;entryX=0;entryY=0;entryDx=0;entryDy=0;fontFamily=Courier New;fontSize=18;" edge="1" parent="1" source="l6peJzb6LIXVpnfwvZle-15" target="l6peJzb6LIXVpnfwvZle-1">
          <mxGeometry relative="1" as="geometry" />
        </mxCell>
        <mxCell id="l6peJzb6LIXVpnfwvZle-15" value="Hash函数" style="ellipse;whiteSpace=wrap;html=1;fontFamily=Courier New;fontSize=18;" vertex="1" parent="1">
          <mxGeometry x="580" y="320" width="120" height="80" as="geometry" />
        </mxCell>
        <mxCell id="l6peJzb6LIXVpnfwvZle-21" style="edgeStyle=orthogonalEdgeStyle;curved=1;rounded=0;orthogonalLoop=1;jettySize=auto;html=1;exitX=0.5;exitY=1;exitDx=0;exitDy=0;fontFamily=Courier New;fontSize=18;entryX=0.25;entryY=0;entryDx=0;entryDy=0;" edge="1" parent="1" source="l6peJzb6LIXVpnfwvZle-18" target="l6peJzb6LIXVpnfwvZle-1">
          <mxGeometry relative="1" as="geometry" />
        </mxCell>
        <mxCell id="l6peJzb6LIXVpnfwvZle-18" value="Hash函数" style="ellipse;whiteSpace=wrap;html=1;fontFamily=Courier New;fontSize=18;" vertex="1" parent="1">
          <mxGeometry x="740" y="320" width="120" height="80" as="geometry" />
        </mxCell>
        <mxCell id="l6peJzb6LIXVpnfwvZle-23" style="edgeStyle=orthogonalEdgeStyle;curved=1;rounded=0;orthogonalLoop=1;jettySize=auto;html=1;exitX=0.5;exitY=1;exitDx=0;exitDy=0;entryX=1;entryY=0;entryDx=0;entryDy=0;fontFamily=Courier New;fontSize=18;" edge="1" parent="1" source="l6peJzb6LIXVpnfwvZle-19" target="l6peJzb6LIXVpnfwvZle-1">
          <mxGeometry relative="1" as="geometry" />
        </mxCell>
        <mxCell id="l6peJzb6LIXVpnfwvZle-19" value="Hash函数" style="ellipse;whiteSpace=wrap;html=1;fontFamily=Courier New;fontSize=18;" vertex="1" parent="1">
          <mxGeometry x="1080" y="320" width="120" height="80" as="geometry" />
        </mxCell>
        <mxCell id="l6peJzb6LIXVpnfwvZle-26" style="edgeStyle=orthogonalEdgeStyle;curved=1;rounded=0;orthogonalLoop=1;jettySize=auto;html=1;exitX=0.5;exitY=1;exitDx=0;exitDy=0;entryX=0.75;entryY=0;entryDx=0;entryDy=0;fontFamily=Courier New;fontSize=18;" edge="1" parent="1" source="l6peJzb6LIXVpnfwvZle-24" target="l6peJzb6LIXVpnfwvZle-1">
          <mxGeometry relative="1" as="geometry" />
        </mxCell>
        <mxCell id="l6peJzb6LIXVpnfwvZle-24" value="Hash函数" style="ellipse;whiteSpace=wrap;html=1;fontFamily=Courier New;fontSize=18;" vertex="1" parent="1">
          <mxGeometry x="910" y="320" width="120" height="80" as="geometry" />
        </mxCell>
        <mxCell id="l6peJzb6LIXVpnfwvZle-27" value="通过一系列Hash函数，将计算出不同的hash节点设置为1" style="text;html=1;strokeColor=none;fillColor=none;align=center;verticalAlign=middle;whiteSpace=wrap;rounded=0;fontFamily=Courier New;fontSize=18;" vertex="1" parent="1">
          <mxGeometry x="650" y="550" width="480" height="30" as="geometry" />
        </mxCell>
      </root>
    </mxGraphModel>
  </diagram>
</mxfile>
